<svg xmlns="http://www.w3.org/2000/svg" viewBox="0 0 96 96" fill="none" role="img" aria-label="Dragnet icon">
  <rect width="96" height="96" rx="20" fill="#0E1330"/>
  <g stroke="#2A3170" stroke-width="2" stroke-linecap="round">
    <path d="M20 20H76M20 48H76M20 76H76"/>
    <path d="M20 20V76M48 20V76M76 20V76"/>
  </g>
  <path d="M20 20 48 48 76 20M20 76 48 48 76 76" stroke="#3BD4C4" stroke-width="2" stroke-linecap="round" stroke-linejoin="round" opacity="0.55"/>
  <g fill="#3A4180">
    <circle cx="20" cy="20" r="4"/><circle cx="48" cy="20" r="4"/><circle cx="76" cy="20" r="4"/>
    <circle cx="20" cy="48" r="4"/><circle cx="76" cy="48" r="4"/>
    <circle cx="20" cy="76" r="4"/><circle cx="48" cy="76" r="4"/><circle cx="76" cy="76" r="4"/>
  </g>
  <circle cx="48" cy="48" r="7" fill="#3BD4C4"/>
  <circle cx="48" cy="48" r="12" stroke="#3BD4C4" stroke-width="2" opacity="0.4"/>
</svg>
